<svg xmlns="http://www.w3.org/2000/svg" viewBox="0 0 100 116" width="100" height="116" role="img" aria-label="LazySentry logo mark, radar scan variant">
  <defs>
    <linearGradient id="g" x1="10" y1="4" x2="90" y2="114" gradientUnits="userSpaceOnUse">
      <stop offset="0" stop-color="#a78bfa"/>
      <stop offset="1" stop-color="#6d28d9"/>
    </linearGradient>
    <clipPath id="shieldClip">
      <path d="M50 8 L18 22 V50 C18 76 32 94 50 106 C68 94 82 76 82 50 V22 L50 8 Z"/>
    </clipPath>
  </defs>

  <path d="M50 8 L18 22 V50 C18 76 32 94 50 106 C68 94 82 76 82 50 V22 L50 8 Z" fill="url(#g)"/>

  <g clip-path="url(#shieldClip)">
    <!-- literal read of the scan pipeline: continuous, low-key sweeps -->
    <circle cx="50" cy="58" r="26" fill="none" stroke="#ffffff" stroke-width="1.4" opacity="0.3"/>
    <circle cx="50" cy="58" r="18" fill="none" stroke="#ffffff" stroke-width="2" opacity="0.55"/>
    <circle cx="50" cy="58" r="10" fill="none" stroke="#ffffff" stroke-width="2.6" opacity="0.9"/>
    <line x1="50" y1="58" x2="76" y2="34" stroke="#ffffff" stroke-width="3" stroke-linecap="round" opacity="0.9"/>
    <circle cx="66" cy="76" r="3" fill="#ffffff"/>
    <circle cx="50" cy="58" r="3" fill="#ffffff"/>
  </g>
</svg>
